<svg width="789" height="379" viewBox="0 0 789 379" fill="none" xmlns="http://www.w3.org/2000/svg">
<g filter="url(#filter0_d_731_55)">
<mask id="path-1-outside-1_731_55" maskUnits="userSpaceOnUse" x="4.65625" y="-29.582" width="780" height="401" fill="black">
<rect fill="white" x="4.65625" y="-29.582" width="780" height="401"/>
<path d="M100.856 140.218C78.7229 140.085 62.1229 134.618 51.0563 123.818C40.1229 113.018 34.6562 95.4846 34.6562 71.218C34.6562 49.218 39.9896 31.9513 50.6562 19.418C61.3229 6.7513 76.3896 0.417969 95.8563 0.417969C107.856 0.417969 118.323 2.21797 127.256 5.81797C136.19 9.41797 143.056 14.5513 147.856 21.218C152.656 27.8846 155.056 35.7513 155.056 44.818C155.056 52.018 153.456 58.418 150.256 64.018C147.19 69.618 142.59 74.618 136.456 79.018C141.39 79.818 145.656 82.4846 149.256 87.018C152.99 91.5513 154.856 96.818 154.856 102.818C154.856 109.218 153.123 115.285 149.656 121.018C146.323 126.618 140.59 131.218 132.456 134.818C124.456 138.418 113.923 140.218 100.856 140.218ZM87.0563 65.618C89.4563 66.818 92.4563 67.418 96.0563 67.418C100.323 67.418 103.99 66.418 107.056 64.418C110.256 62.2846 111.856 59.1513 111.856 55.018C111.856 51.018 110.256 48.018 107.056 46.018C103.99 43.8846 100.256 42.818 95.8563 42.818C92.3896 42.818 89.4563 43.418 87.0563 44.618C85.1896 45.418 83.7896 46.818 82.8563 48.818C81.9229 50.818 81.4562 52.9513 81.4562 55.218C81.4562 57.4846 81.9229 59.618 82.8563 61.618C83.7896 63.4846 85.1896 64.818 87.0563 65.618ZM87.0563 112.418C89.5896 113.485 92.5896 114.018 96.0563 114.018C100.323 114.018 103.99 113.151 107.056 111.418C110.256 109.551 111.856 106.818 111.856 103.218C111.856 99.7513 110.256 97.0846 107.056 95.218C103.856 93.3513 100.123 92.418 95.8563 92.418C92.5229 92.418 89.5896 92.9513 87.0563 94.018C85.1896 94.818 83.7896 96.0846 82.8563 97.818C81.9229 99.418 81.4562 101.218 81.4562 103.218C81.4562 105.218 81.9229 107.085 82.8563 108.818C83.7896 110.418 85.1896 111.618 87.0563 112.418Z"/>
<path d="M282.819 57.018C282.819 66.7513 281.352 75.3513 278.419 82.818C275.619 90.2846 271.619 96.5513 266.419 101.618C270.819 108.418 273.019 115.018 273.019 121.418C273.019 126.885 270.885 131.418 266.619 135.018C262.485 138.618 257.752 140.418 252.419 140.418C249.352 140.418 246.552 139.951 244.019 139.018C241.485 138.085 238.752 136.485 235.819 134.218C233.285 132.218 230.885 129.485 228.619 126.018C226.352 122.551 224.552 118.951 223.219 115.218C218.819 114.685 214.419 113.551 210.019 111.818C210.819 116.085 211.219 119.351 211.219 121.618C211.219 134.285 204.619 140.618 191.419 140.618C180.352 140.618 172.552 134.151 168.019 121.218C163.485 108.285 161.219 92.4846 161.219 73.818C161.219 61.1513 163.485 49.2846 168.019 38.218C172.685 27.018 179.752 18.018 189.219 11.218C198.685 4.28464 210.219 0.817976 223.819 0.817976C234.752 0.817976 244.685 3.15131 253.619 7.81797C262.552 12.3513 269.619 18.8846 274.819 27.418C280.152 35.9513 282.819 45.818 282.819 57.018ZM208.019 66.418C208.019 70.9513 209.819 74.9513 213.419 78.418C217.019 81.7513 221.152 83.418 225.819 83.418C230.619 83.418 234.752 81.7513 238.219 78.418C241.819 74.9513 243.619 70.9513 243.619 66.418C243.619 61.7513 241.819 57.7513 238.219 54.418C234.752 50.9513 230.619 49.218 225.819 49.218C221.152 49.218 217.019 50.9513 213.419 54.418C209.819 57.8846 208.019 61.8846 208.019 66.418Z"/>
<path d="M347.698 104.218C354.498 105.018 359.765 106.751 363.498 109.418C367.365 111.951 369.298 116.018 369.298 121.618C369.298 127.218 367.298 131.351 363.298 134.018C359.432 136.685 354.765 138.351 349.298 139.018C343.832 139.551 336.765 139.818 328.098 139.818C319.565 139.818 312.565 139.551 307.098 139.018C301.632 138.351 296.965 136.685 293.098 134.018C289.232 131.351 287.298 127.218 287.298 121.618C287.298 116.151 289.098 112.151 292.698 109.618C296.432 106.951 301.498 105.151 307.898 104.218C307.232 96.4846 306.898 85.418 306.898 71.018C306.898 58.0846 307.165 47.6846 307.698 39.818C299.965 39.018 293.898 37.1513 289.498 34.218C285.098 31.2846 282.898 26.6846 282.898 20.418C282.898 14.2846 285.032 9.75131 289.298 6.81797C293.565 3.88463 298.698 2.08463 304.698 1.41797C310.698 0.751302 318.432 0.417969 327.898 0.417969C337.365 0.417969 345.098 0.751302 351.098 1.41797C357.098 2.08463 362.232 3.88463 366.498 6.81797C370.898 9.75131 373.098 14.2846 373.098 20.418C373.098 26.6846 370.832 31.2846 366.298 34.218C361.898 37.1513 355.765 39.018 347.898 39.818C348.565 47.1513 348.898 57.5513 348.898 71.018C348.898 83.9513 348.498 95.018 347.698 104.218Z"/>
<path d="M435.388 140.418C418.188 140.418 405.654 138.351 397.788 134.218C389.921 130.085 384.854 123.485 382.587 114.418C380.321 105.351 379.188 91.218 379.188 72.018C379.188 52.5513 380.254 38.0846 382.388 28.618C384.654 19.018 389.654 11.9513 397.388 7.41797C405.254 2.7513 417.721 0.417969 434.788 0.417969C445.054 0.417969 455.521 2.81797 466.188 7.61797C476.854 12.2846 485.854 20.018 493.188 30.818C500.521 41.618 504.188 55.418 504.188 72.218C504.188 88.3513 500.454 101.551 492.988 111.818C485.521 121.951 476.521 129.285 465.988 133.818C455.454 138.218 445.254 140.418 435.388 140.418ZM422.988 105.218C427.254 105.751 430.321 106.018 432.188 106.018C441.654 106.018 448.988 103.485 454.188 98.418C459.388 93.3513 461.987 86.3513 461.987 77.418C461.987 69.418 459.454 63.218 454.388 58.818C449.321 54.2846 442.187 52.018 432.987 52.018C429.521 52.018 426.188 52.2846 422.988 52.818V105.218Z"/>
<path d="M584.395 140.218C569.195 140.218 556.195 137.551 545.395 132.218C534.595 126.885 526.329 119.285 520.595 109.418C514.995 99.418 512.195 87.618 512.195 74.018C512.195 57.7513 515.595 44.0846 522.395 33.018C529.329 21.9513 538.262 13.7513 549.195 8.41797C560.129 3.08464 571.595 0.417969 583.595 0.417969C594.262 0.417969 603.662 2.01797 611.795 5.21797C619.929 8.41797 626.195 12.618 630.595 17.818C634.995 23.018 637.195 28.4846 637.195 34.218C637.195 42.4846 635.062 48.418 630.795 52.018C626.529 55.4846 621.262 57.218 614.995 57.218C612.062 57.218 609.462 56.9513 607.195 56.418C605.062 55.8846 602.795 55.1513 600.395 54.218C597.729 53.2846 595.329 52.618 593.195 52.218C591.195 51.6846 588.662 51.418 585.595 51.418C576.795 51.418 569.862 54.0846 564.795 59.418C559.729 64.618 557.195 72.018 557.195 81.618C557.195 89.7513 559.662 96.018 564.595 100.418C569.529 104.818 575.662 107.018 582.995 107.018C587.129 107.018 590.729 106.485 593.795 105.418C596.862 104.351 599.195 103.151 600.795 101.818C602.395 100.485 603.195 99.418 603.195 98.618C593.462 98.618 586.062 97.4846 580.995 95.218C575.929 92.9513 573.395 89.018 573.395 83.418C573.395 77.818 575.329 73.4846 579.195 70.418C583.062 67.218 589.595 65.618 598.795 65.618C608.262 65.618 615.662 66.7513 620.995 69.018C626.329 71.1513 630.129 74.5513 632.395 79.218C634.662 83.7513 635.795 89.818 635.795 97.418C635.795 105.151 633.462 112.285 628.795 118.818C624.262 125.351 617.995 130.551 609.995 134.418C602.129 138.285 593.595 140.218 584.395 140.218Z"/>
<path d="M743.05 108.418C749.45 110.418 752.65 114.618 752.65 121.018C752.65 127.018 749.583 131.751 743.45 135.218C737.317 138.685 726.717 140.418 711.65 140.418C692.85 140.418 676.717 135.885 663.25 126.818C649.917 117.751 643.25 99.7513 643.25 72.818C643.25 59.218 645.583 46.9513 650.25 36.018C654.917 25.0846 661.85 16.418 671.05 10.018C680.383 3.61797 691.783 0.417969 705.25 0.417969C723.25 0.417969 735.917 3.21797 743.25 8.81797C750.583 14.2846 754.25 21.018 754.25 29.018C754.25 32.7513 753.317 36.218 751.45 39.418C749.583 42.4846 746.783 44.8846 743.05 46.618C739.85 48.218 735.717 49.018 730.65 49.018L725.25 48.818C724.183 48.6846 722.65 48.618 720.65 48.618C713.717 48.618 708.25 49.8846 704.25 52.418C700.25 54.818 697.517 58.5513 696.05 63.618C701.65 63.3513 706.717 63.218 711.25 63.218C724.717 63.218 733.45 63.618 737.45 64.418C741.983 65.3513 745.45 67.1513 747.85 69.818C750.383 72.4846 751.65 75.618 751.65 79.218C751.65 82.818 750.45 85.9513 748.05 88.618C745.65 91.1513 742.05 92.8846 737.25 93.818C733.517 94.618 724.45 95.018 710.05 95.018C704.183 95.018 700.05 94.9513 697.65 94.818C701.783 103.618 709.517 108.018 720.85 108.018C721.517 108.018 723.05 107.885 725.45 107.618C728.65 107.351 731.383 107.218 733.65 107.218C737.517 107.218 740.65 107.618 743.05 108.418Z"/>
<path d="M246.076 230.218C246.076 239.018 242.409 245.418 235.076 249.418C227.876 253.285 216.076 255.618 199.676 256.418C200.209 262.818 200.476 271.085 200.476 281.218C200.476 295.351 199.676 306.685 198.076 315.218C196.609 323.618 194.009 329.885 190.276 334.018C186.542 338.018 181.342 340.018 174.676 340.018C168.142 340.018 163.142 337.885 159.676 333.618C156.209 329.351 153.809 323.018 152.476 314.618C151.142 306.218 150.476 295.085 150.476 281.218C150.476 271.885 150.676 263.618 151.076 256.418C140.009 255.885 131.076 254.751 124.276 253.018C117.609 251.151 112.676 248.418 109.476 244.818C106.276 241.218 104.676 236.351 104.676 230.218C104.676 222.751 107.209 216.885 112.276 212.618C117.342 208.351 124.942 205.351 135.076 203.618C145.209 201.885 158.476 201.018 174.876 201.018C191.409 201.018 204.809 201.885 215.076 203.618C225.342 205.351 233.076 208.351 238.276 212.618C243.476 216.885 246.076 222.751 246.076 230.218Z"/>
<path d="M273.18 340.818C264.247 340.818 257.047 336.485 251.58 327.818C246.247 319.018 243.114 307.151 242.18 292.218C242.047 290.085 241.98 286.951 241.98 282.818C241.98 266.685 244.647 252.418 249.98 240.018C255.314 227.485 262.847 217.818 272.58 211.018C282.447 204.085 293.914 200.618 306.98 200.618C320.047 200.618 331.447 204.085 341.18 211.018C351.047 217.818 358.58 227.418 363.78 239.818C369.114 252.218 371.78 266.551 371.78 282.818C371.78 286.951 371.714 290.085 371.58 292.218C370.647 307.418 367.514 319.285 362.18 327.818C356.847 336.351 349.647 340.618 340.58 340.618C333.247 340.618 328.114 338.618 325.18 334.618C322.38 330.618 320.98 325.751 320.98 320.018C320.98 317.351 321.18 315.018 321.58 313.018C314.647 313.285 308.514 313.418 303.18 313.418C299.847 313.418 296.18 313.285 292.18 313.018C292.58 315.018 292.78 317.351 292.78 320.018C292.78 325.885 291.314 330.818 288.38 334.818C285.58 338.818 280.514 340.818 273.18 340.818ZM290.78 277.418C297.98 277.151 303.247 277.018 306.58 277.018C310.18 277.018 315.447 277.151 322.38 277.418C322.647 275.951 322.78 273.751 322.78 270.818C322.78 264.551 321.447 259.485 318.78 255.618C316.114 251.618 311.98 249.618 306.38 249.618C300.914 249.618 296.847 251.551 294.18 255.418C291.514 259.285 290.18 264.285 290.18 270.418C290.18 272.685 290.38 275.018 290.78 277.418Z"/>
<path d="M437.424 340.418C423.958 340.418 412.558 337.685 403.224 332.218C393.891 326.618 387.758 318.285 384.824 307.218C383.624 302.685 382.824 297.151 382.424 290.618C382.024 284.085 381.824 275.751 381.824 265.618C381.824 245.751 383.958 229.951 388.224 218.218C392.624 206.351 401.291 200.418 414.224 200.418C422.224 200.418 428.491 203.218 433.024 208.818C437.691 214.418 440.024 221.351 440.024 229.618C440.024 238.418 439.291 247.818 437.824 257.818C436.358 267.818 434.291 279.951 431.624 294.218C439.891 291.551 448.958 290.218 458.824 290.218C469.091 290.218 477.624 292.085 484.424 295.818C491.358 299.551 494.824 305.618 494.824 314.018C494.824 322.151 492.158 328.151 486.824 332.018C481.491 335.885 475.024 338.285 467.424 339.218C459.824 340.018 449.824 340.418 437.424 340.418Z"/>
<path d="M575.565 271.818C587.432 277.285 597.498 283.885 605.765 291.618C614.165 299.351 618.365 307.751 618.365 316.818C618.365 324.818 616.165 330.751 611.765 334.618C607.365 338.485 601.965 340.418 595.565 340.418C586.365 340.418 577.698 336.218 569.565 327.818C561.565 319.285 553.832 308.151 546.365 294.418C546.365 303.885 545.832 311.818 544.765 318.218C543.832 324.618 541.698 329.951 538.365 334.218C535.032 338.351 530.032 340.418 523.365 340.418C516.432 340.418 511.298 337.818 507.965 332.618C504.765 327.418 502.765 321.151 501.965 313.818C501.298 306.485 500.965 296.885 500.965 285.018C500.965 276.618 501.032 266.685 501.165 255.218C501.432 243.618 501.698 236.418 501.965 233.618C502.232 223.618 504.298 215.618 508.165 209.618C512.032 203.485 517.498 200.418 524.565 200.418C532.698 200.418 538.365 203.885 541.565 210.818C544.898 217.751 546.565 228.351 546.565 242.618V248.618C553.365 236.351 561.232 225.351 570.165 215.618C579.098 205.885 588.032 201.018 596.965 201.018C603.232 201.018 608.365 203.418 612.365 208.218C616.498 212.885 618.565 218.685 618.565 225.618C618.565 234.951 614.565 243.885 606.565 252.418C598.698 260.818 588.365 267.285 575.565 271.818Z"/>
<path d="M637.104 209.818C640.971 203.551 647.437 200.418 656.504 200.418C665.171 200.418 671.437 203.418 675.304 209.418C679.304 215.418 681.304 222.685 681.304 231.218C681.304 238.285 680.637 246.151 679.304 254.818C677.971 263.351 676.104 271.018 673.704 277.818C672.504 281.151 670.437 284.085 667.504 286.618C664.704 289.018 661.037 290.218 656.504 290.218C651.971 290.218 648.237 289.018 645.304 286.618C642.371 284.085 640.304 281.151 639.104 277.818C636.704 271.151 634.837 263.685 633.504 255.418C632.171 247.018 631.504 239.418 631.504 232.618C631.504 223.551 633.371 215.951 637.104 209.818ZM670.904 333.218C666.771 337.351 661.904 339.418 656.304 339.418C650.704 339.418 645.837 337.351 641.704 333.218C637.571 329.085 635.504 324.218 635.504 318.618C635.504 313.018 637.571 308.151 641.704 304.018C645.837 299.885 650.704 297.818 656.304 297.818C661.904 297.818 666.771 299.885 670.904 304.018C675.037 308.151 677.104 313.018 677.104 318.618C677.104 324.218 675.037 329.085 670.904 333.218Z"/>
</mask>
<path d="M100.856 140.218C78.7229 140.085 62.1229 134.618 51.0563 123.818C40.1229 113.018 34.6562 95.4846 34.6562 71.218C34.6562 49.218 39.9896 31.9513 50.6562 19.418C61.3229 6.7513 76.3896 0.417969 95.8563 0.417969C107.856 0.417969 118.323 2.21797 127.256 5.81797C136.19 9.41797 143.056 14.5513 147.856 21.218C152.656 27.8846 155.056 35.7513 155.056 44.818C155.056 52.018 153.456 58.418 150.256 64.018C147.19 69.618 142.59 74.618 136.456 79.018C141.39 79.818 145.656 82.4846 149.256 87.018C152.99 91.5513 154.856 96.818 154.856 102.818C154.856 109.218 153.123 115.285 149.656 121.018C146.323 126.618 140.59 131.218 132.456 134.818C124.456 138.418 113.923 140.218 100.856 140.218ZM87.0563 65.618C89.4563 66.818 92.4563 67.418 96.0563 67.418C100.323 67.418 103.99 66.418 107.056 64.418C110.256 62.2846 111.856 59.1513 111.856 55.018C111.856 51.018 110.256 48.018 107.056 46.018C103.99 43.8846 100.256 42.818 95.8563 42.818C92.3896 42.818 89.4563 43.418 87.0563 44.618C85.1896 45.418 83.7896 46.818 82.8563 48.818C81.9229 50.818 81.4562 52.9513 81.4562 55.218C81.4562 57.4846 81.9229 59.618 82.8563 61.618C83.7896 63.4846 85.1896 64.818 87.0563 65.618ZM87.0563 112.418C89.5896 113.485 92.5896 114.018 96.0563 114.018C100.323 114.018 103.99 113.151 107.056 111.418C110.256 109.551 111.856 106.818 111.856 103.218C111.856 99.7513 110.256 97.0846 107.056 95.218C103.856 93.3513 100.123 92.418 95.8563 92.418C92.5229 92.418 89.5896 92.9513 87.0563 94.018C85.1896 94.818 83.7896 96.0846 82.8563 97.818C81.9229 99.418 81.4562 101.218 81.4562 103.218C81.4562 105.218 81.9229 107.085 82.8563 108.818C83.7896 110.418 85.1896 111.618 87.0563 112.418Z" fill="white"/>
<path d="M282.819 57.018C282.819 66.7513 281.352 75.3513 278.419 82.818C275.619 90.2846 271.619 96.5513 266.419 101.618C270.819 108.418 273.019 115.018 273.019 121.418C273.019 126.885 270.885 131.418 266.619 135.018C262.485 138.618 257.752 140.418 252.419 140.418C249.352 140.418 246.552 139.951 244.019 139.018C241.485 138.085 238.752 136.485 235.819 134.218C233.285 132.218 230.885 129.485 228.619 126.018C226.352 122.551 224.552 118.951 223.219 115.218C218.819 114.685 214.419 113.551 210.019 111.818C210.819 116.085 211.219 119.351 211.219 121.618C211.219 134.285 204.619 140.618 191.419 140.618C180.352 140.618 172.552 134.151 168.019 121.218C163.485 108.285 161.219 92.4846 161.219 73.818C161.219 61.1513 163.485 49.2846 168.019 38.218C172.685 27.018 179.752 18.018 189.219 11.218C198.685 4.28464 210.219 0.817976 223.819 0.817976C234.752 0.817976 244.685 3.15131 253.619 7.81797C262.552 12.3513 269.619 18.8846 274.819 27.418C280.152 35.9513 282.819 45.818 282.819 57.018ZM208.019 66.418C208.019 70.9513 209.819 74.9513 213.419 78.418C217.019 81.7513 221.152 83.418 225.819 83.418C230.619 83.418 234.752 81.7513 238.219 78.418C241.819 74.9513 243.619 70.9513 243.619 66.418C243.619 61.7513 241.819 57.7513 238.219 54.418C234.752 50.9513 230.619 49.218 225.819 49.218C221.152 49.218 217.019 50.9513 213.419 54.418C209.819 57.8846 208.019 61.8846 208.019 66.418Z" fill="white"/>
<path d="M347.698 104.218C354.498 105.018 359.765 106.751 363.498 109.418C367.365 111.951 369.298 116.018 369.298 121.618C369.298 127.218 367.298 131.351 363.298 134.018C359.432 136.685 354.765 138.351 349.298 139.018C343.832 139.551 336.765 139.818 328.098 139.818C319.565 139.818 312.565 139.551 307.098 139.018C301.632 138.351 296.965 136.685 293.098 134.018C289.232 131.351 287.298 127.218 287.298 121.618C287.298 116.151 289.098 112.151 292.698 109.618C296.432 106.951 301.498 105.151 307.898 104.218C307.232 96.4846 306.898 85.418 306.898 71.018C306.898 58.0846 307.165 47.6846 307.698 39.818C299.965 39.018 293.898 37.1513 289.498 34.218C285.098 31.2846 282.898 26.6846 282.898 20.418C282.898 14.2846 285.032 9.75131 289.298 6.81797C293.565 3.88463 298.698 2.08463 304.698 1.41797C310.698 0.751302 318.432 0.417969 327.898 0.417969C337.365 0.417969 345.098 0.751302 351.098 1.41797C357.098 2.08463 362.232 3.88463 366.498 6.81797C370.898 9.75131 373.098 14.2846 373.098 20.418C373.098 26.6846 370.832 31.2846 366.298 34.218C361.898 37.1513 355.765 39.018 347.898 39.818C348.565 47.1513 348.898 57.5513 348.898 71.018C348.898 83.9513 348.498 95.018 347.698 104.218Z" fill="white"/>
<path d="M435.388 140.418C418.188 140.418 405.654 138.351 397.788 134.218C389.921 130.085 384.854 123.485 382.587 114.418C380.321 105.351 379.188 91.218 379.188 72.018C379.188 52.5513 380.254 38.0846 382.388 28.618C384.654 19.018 389.654 11.9513 397.388 7.41797C405.254 2.7513 417.721 0.417969 434.788 0.417969C445.054 0.417969 455.521 2.81797 466.188 7.61797C476.854 12.2846 485.854 20.018 493.188 30.818C500.521 41.618 504.188 55.418 504.188 72.218C504.188 88.3513 500.454 101.551 492.988 111.818C485.521 121.951 476.521 129.285 465.988 133.818C455.454 138.218 445.254 140.418 435.388 140.418ZM422.988 105.218C427.254 105.751 430.321 106.018 432.188 106.018C441.654 106.018 448.988 103.485 454.188 98.418C459.388 93.3513 461.987 86.3513 461.987 77.418C461.987 69.418 459.454 63.218 454.388 58.818C449.321 54.2846 442.187 52.018 432.987 52.018C429.521 52.018 426.188 52.2846 422.988 52.818V105.218Z" fill="white"/>
<path d="M584.395 140.218C569.195 140.218 556.195 137.551 545.395 132.218C534.595 126.885 526.329 119.285 520.595 109.418C514.995 99.418 512.195 87.618 512.195 74.018C512.195 57.7513 515.595 44.0846 522.395 33.018C529.329 21.9513 538.262 13.7513 549.195 8.41797C560.129 3.08464 571.595 0.417969 583.595 0.417969C594.262 0.417969 603.662 2.01797 611.795 5.21797C619.929 8.41797 626.195 12.618 630.595 17.818C634.995 23.018 637.195 28.4846 637.195 34.218C637.195 42.4846 635.062 48.418 630.795 52.018C626.529 55.4846 621.262 57.218 614.995 57.218C612.062 57.218 609.462 56.9513 607.195 56.418C605.062 55.8846 602.795 55.1513 600.395 54.218C597.729 53.2846 595.329 52.618 593.195 52.218C591.195 51.6846 588.662 51.418 585.595 51.418C576.795 51.418 569.862 54.0846 564.795 59.418C559.729 64.618 557.195 72.018 557.195 81.618C557.195 89.7513 559.662 96.018 564.595 100.418C569.529 104.818 575.662 107.018 582.995 107.018C587.129 107.018 590.729 106.485 593.795 105.418C596.862 104.351 599.195 103.151 600.795 101.818C602.395 100.485 603.195 99.418 603.195 98.618C593.462 98.618 586.062 97.4846 580.995 95.218C575.929 92.9513 573.395 89.018 573.395 83.418C573.395 77.818 575.329 73.4846 579.195 70.418C583.062 67.218 589.595 65.618 598.795 65.618C608.262 65.618 615.662 66.7513 620.995 69.018C626.329 71.1513 630.129 74.5513 632.395 79.218C634.662 83.7513 635.795 89.818 635.795 97.418C635.795 105.151 633.462 112.285 628.795 118.818C624.262 125.351 617.995 130.551 609.995 134.418C602.129 138.285 593.595 140.218 584.395 140.218Z" fill="white"/>
<path d="M743.05 108.418C749.45 110.418 752.65 114.618 752.65 121.018C752.65 127.018 749.583 131.751 743.45 135.218C737.317 138.685 726.717 140.418 711.65 140.418C692.85 140.418 676.717 135.885 663.25 126.818C649.917 117.751 643.25 99.7513 643.25 72.818C643.25 59.218 645.583 46.9513 650.25 36.018C654.917 25.0846 661.85 16.418 671.05 10.018C680.383 3.61797 691.783 0.417969 705.25 0.417969C723.25 0.417969 735.917 3.21797 743.25 8.81797C750.583 14.2846 754.25 21.018 754.25 29.018C754.25 32.7513 753.317 36.218 751.45 39.418C749.583 42.4846 746.783 44.8846 743.05 46.618C739.85 48.218 735.717 49.018 730.65 49.018L725.25 48.818C724.183 48.6846 722.65 48.618 720.65 48.618C713.717 48.618 708.25 49.8846 704.25 52.418C700.25 54.818 697.517 58.5513 696.05 63.618C701.65 63.3513 706.717 63.218 711.25 63.218C724.717 63.218 733.45 63.618 737.45 64.418C741.983 65.3513 745.45 67.1513 747.85 69.818C750.383 72.4846 751.65 75.618 751.65 79.218C751.65 82.818 750.45 85.9513 748.05 88.618C745.65 91.1513 742.05 92.8846 737.25 93.818C733.517 94.618 724.45 95.018 710.05 95.018C704.183 95.018 700.05 94.9513 697.65 94.818C701.783 103.618 709.517 108.018 720.85 108.018C721.517 108.018 723.05 107.885 725.45 107.618C728.65 107.351 731.383 107.218 733.65 107.218C737.517 107.218 740.65 107.618 743.05 108.418Z" fill="white"/>
<path d="M246.076 230.218C246.076 239.018 242.409 245.418 235.076 249.418C227.876 253.285 216.076 255.618 199.676 256.418C200.209 262.818 200.476 271.085 200.476 281.218C200.476 295.351 199.676 306.685 198.076 315.218C196.609 323.618 194.009 329.885 190.276 334.018C186.542 338.018 181.342 340.018 174.676 340.018C168.142 340.018 163.142 337.885 159.676 333.618C156.209 329.351 153.809 323.018 152.476 314.618C151.142 306.218 150.476 295.085 150.476 281.218C150.476 271.885 150.676 263.618 151.076 256.418C140.009 255.885 131.076 254.751 124.276 253.018C117.609 251.151 112.676 248.418 109.476 244.818C106.276 241.218 104.676 236.351 104.676 230.218C104.676 222.751 107.209 216.885 112.276 212.618C117.342 208.351 124.942 205.351 135.076 203.618C145.209 201.885 158.476 201.018 174.876 201.018C191.409 201.018 204.809 201.885 215.076 203.618C225.342 205.351 233.076 208.351 238.276 212.618C243.476 216.885 246.076 222.751 246.076 230.218Z" fill="white"/>
<path d="M273.18 340.818C264.247 340.818 257.047 336.485 251.58 327.818C246.247 319.018 243.114 307.151 242.18 292.218C242.047 290.085 241.98 286.951 241.98 282.818C241.98 266.685 244.647 252.418 249.98 240.018C255.314 227.485 262.847 217.818 272.58 211.018C282.447 204.085 293.914 200.618 306.98 200.618C320.047 200.618 331.447 204.085 341.18 211.018C351.047 217.818 358.58 227.418 363.78 239.818C369.114 252.218 371.78 266.551 371.78 282.818C371.78 286.951 371.714 290.085 371.58 292.218C370.647 307.418 367.514 319.285 362.18 327.818C356.847 336.351 349.647 340.618 340.58 340.618C333.247 340.618 328.114 338.618 325.18 334.618C322.38 330.618 320.98 325.751 320.98 320.018C320.98 317.351 321.18 315.018 321.58 313.018C314.647 313.285 308.514 313.418 303.18 313.418C299.847 313.418 296.18 313.285 292.18 313.018C292.58 315.018 292.78 317.351 292.78 320.018C292.78 325.885 291.314 330.818 288.38 334.818C285.58 338.818 280.514 340.818 273.18 340.818ZM290.78 277.418C297.98 277.151 303.247 277.018 306.58 277.018C310.18 277.018 315.447 277.151 322.38 277.418C322.647 275.951 322.78 273.751 322.78 270.818C322.78 264.551 321.447 259.485 318.78 255.618C316.114 251.618 311.98 249.618 306.38 249.618C300.914 249.618 296.847 251.551 294.18 255.418C291.514 259.285 290.18 264.285 290.18 270.418C290.18 272.685 290.38 275.018 290.78 277.418Z" fill="white"/>
<path d="M437.424 340.418C423.958 340.418 412.558 337.685 403.224 332.218C393.891 326.618 387.758 318.285 384.824 307.218C383.624 302.685 382.824 297.151 382.424 290.618C382.024 284.085 381.824 275.751 381.824 265.618C381.824 245.751 383.958 229.951 388.224 218.218C392.624 206.351 401.291 200.418 414.224 200.418C422.224 200.418 428.491 203.218 433.024 208.818C437.691 214.418 440.024 221.351 440.024 229.618C440.024 238.418 439.291 247.818 437.824 257.818C436.358 267.818 434.291 279.951 431.624 294.218C439.891 291.551 448.958 290.218 458.824 290.218C469.091 290.218 477.624 292.085 484.424 295.818C491.358 299.551 494.824 305.618 494.824 314.018C494.824 322.151 492.158 328.151 486.824 332.018C481.491 335.885 475.024 338.285 467.424 339.218C459.824 340.018 449.824 340.418 437.424 340.418Z" fill="white"/>
<path d="M575.565 271.818C587.432 277.285 597.498 283.885 605.765 291.618C614.165 299.351 618.365 307.751 618.365 316.818C618.365 324.818 616.165 330.751 611.765 334.618C607.365 338.485 601.965 340.418 595.565 340.418C586.365 340.418 577.698 336.218 569.565 327.818C561.565 319.285 553.832 308.151 546.365 294.418C546.365 303.885 545.832 311.818 544.765 318.218C543.832 324.618 541.698 329.951 538.365 334.218C535.032 338.351 530.032 340.418 523.365 340.418C516.432 340.418 511.298 337.818 507.965 332.618C504.765 327.418 502.765 321.151 501.965 313.818C501.298 306.485 500.965 296.885 500.965 285.018C500.965 276.618 501.032 266.685 501.165 255.218C501.432 243.618 501.698 236.418 501.965 233.618C502.232 223.618 504.298 215.618 508.165 209.618C512.032 203.485 517.498 200.418 524.565 200.418C532.698 200.418 538.365 203.885 541.565 210.818C544.898 217.751 546.565 228.351 546.565 242.618V248.618C553.365 236.351 561.232 225.351 570.165 215.618C579.098 205.885 588.032 201.018 596.965 201.018C603.232 201.018 608.365 203.418 612.365 208.218C616.498 212.885 618.565 218.685 618.565 225.618C618.565 234.951 614.565 243.885 606.565 252.418C598.698 260.818 588.365 267.285 575.565 271.818Z" fill="white"/>
<path d="M637.104 209.818C640.971 203.551 647.437 200.418 656.504 200.418C665.171 200.418 671.437 203.418 675.304 209.418C679.304 215.418 681.304 222.685 681.304 231.218C681.304 238.285 680.637 246.151 679.304 254.818C677.971 263.351 676.104 271.018 673.704 277.818C672.504 281.151 670.437 284.085 667.504 286.618C664.704 289.018 661.037 290.218 656.504 290.218C651.971 290.218 648.237 289.018 645.304 286.618C642.371 284.085 640.304 281.151 639.104 277.818C636.704 271.151 634.837 263.685 633.504 255.418C632.171 247.018 631.504 239.418 631.504 232.618C631.504 223.551 633.371 215.951 637.104 209.818ZM670.904 333.218C666.771 337.351 661.904 339.418 656.304 339.418C650.704 339.418 645.837 337.351 641.704 333.218C637.571 329.085 635.504 324.218 635.504 318.618C635.504 313.018 637.571 308.151 641.704 304.018C645.837 299.885 650.704 297.818 656.304 297.818C661.904 297.818 666.771 299.885 670.904 304.018C675.037 308.151 677.104 313.018 677.104 318.618C677.104 324.218 675.037 329.085 670.904 333.218Z" fill="white"/>
<path d="M100.856 140.218C78.7229 140.085 62.1229 134.618 51.0563 123.818C40.1229 113.018 34.6562 95.4846 34.6562 71.218C34.6562 49.218 39.9896 31.9513 50.6562 19.418C61.3229 6.7513 76.3896 0.417969 95.8563 0.417969C107.856 0.417969 118.323 2.21797 127.256 5.81797C136.19 9.41797 143.056 14.5513 147.856 21.218C152.656 27.8846 155.056 35.7513 155.056 44.818C155.056 52.018 153.456 58.418 150.256 64.018C147.19 69.618 142.59 74.618 136.456 79.018C141.39 79.818 145.656 82.4846 149.256 87.018C152.99 91.5513 154.856 96.818 154.856 102.818C154.856 109.218 153.123 115.285 149.656 121.018C146.323 126.618 140.59 131.218 132.456 134.818C124.456 138.418 113.923 140.218 100.856 140.218ZM87.0563 65.618C89.4563 66.818 92.4563 67.418 96.0563 67.418C100.323 67.418 103.99 66.418 107.056 64.418C110.256 62.2846 111.856 59.1513 111.856 55.018C111.856 51.018 110.256 48.018 107.056 46.018C103.99 43.8846 100.256 42.818 95.8563 42.818C92.3896 42.818 89.4563 43.418 87.0563 44.618C85.1896 45.418 83.7896 46.818 82.8563 48.818C81.9229 50.818 81.4562 52.9513 81.4562 55.218C81.4562 57.4846 81.9229 59.618 82.8563 61.618C83.7896 63.4846 85.1896 64.818 87.0563 65.618ZM87.0563 112.418C89.5896 113.485 92.5896 114.018 96.0563 114.018C100.323 114.018 103.99 113.151 107.056 111.418C110.256 109.551 111.856 106.818 111.856 103.218C111.856 99.7513 110.256 97.0846 107.056 95.218C103.856 93.3513 100.123 92.418 95.8563 92.418C92.5229 92.418 89.5896 92.9513 87.0563 94.018C85.1896 94.818 83.7896 96.0846 82.8563 97.818C81.9229 99.418 81.4562 101.218 81.4562 103.218C81.4562 105.218 81.9229 107.085 82.8563 108.818C83.7896 110.418 85.1896 111.618 87.0563 112.418Z" stroke="#6C95FF" stroke-width="60" mask="url(#path-1-outside-1_731_55)"/>
<path d="M282.819 57.018C282.819 66.7513 281.352 75.3513 278.419 82.818C275.619 90.2846 271.619 96.5513 266.419 101.618C270.819 108.418 273.019 115.018 273.019 121.418C273.019 126.885 270.885 131.418 266.619 135.018C262.485 138.618 257.752 140.418 252.419 140.418C249.352 140.418 246.552 139.951 244.019 139.018C241.485 138.085 238.752 136.485 235.819 134.218C233.285 132.218 230.885 129.485 228.619 126.018C226.352 122.551 224.552 118.951 223.219 115.218C218.819 114.685 214.419 113.551 210.019 111.818C210.819 116.085 211.219 119.351 211.219 121.618C211.219 134.285 204.619 140.618 191.419 140.618C180.352 140.618 172.552 134.151 168.019 121.218C163.485 108.285 161.219 92.4846 161.219 73.818C161.219 61.1513 163.485 49.2846 168.019 38.218C172.685 27.018 179.752 18.018 189.219 11.218C198.685 4.28464 210.219 0.817976 223.819 0.817976C234.752 0.817976 244.685 3.15131 253.619 7.81797C262.552 12.3513 269.619 18.8846 274.819 27.418C280.152 35.9513 282.819 45.818 282.819 57.018ZM208.019 66.418C208.019 70.9513 209.819 74.9513 213.419 78.418C217.019 81.7513 221.152 83.418 225.819 83.418C230.619 83.418 234.752 81.7513 238.219 78.418C241.819 74.9513 243.619 70.9513 243.619 66.418C243.619 61.7513 241.819 57.7513 238.219 54.418C234.752 50.9513 230.619 49.218 225.819 49.218C221.152 49.218 217.019 50.9513 213.419 54.418C209.819 57.8846 208.019 61.8846 208.019 66.418Z" stroke="#6C95FF" stroke-width="60" mask="url(#path-1-outside-1_731_55)"/>
<path d="M347.698 104.218C354.498 105.018 359.765 106.751 363.498 109.418C367.365 111.951 369.298 116.018 369.298 121.618C369.298 127.218 367.298 131.351 363.298 134.018C359.432 136.685 354.765 138.351 349.298 139.018C343.832 139.551 336.765 139.818 328.098 139.818C319.565 139.818 312.565 139.551 307.098 139.018C301.632 138.351 296.965 136.685 293.098 134.018C289.232 131.351 287.298 127.218 287.298 121.618C287.298 116.151 289.098 112.151 292.698 109.618C296.432 106.951 301.498 105.151 307.898 104.218C307.232 96.4846 306.898 85.418 306.898 71.018C306.898 58.0846 307.165 47.6846 307.698 39.818C299.965 39.018 293.898 37.1513 289.498 34.218C285.098 31.2846 282.898 26.6846 282.898 20.418C282.898 14.2846 285.032 9.75131 289.298 6.81797C293.565 3.88463 298.698 2.08463 304.698 1.41797C310.698 0.751302 318.432 0.417969 327.898 0.417969C337.365 0.417969 345.098 0.751302 351.098 1.41797C357.098 2.08463 362.232 3.88463 366.498 6.81797C370.898 9.75131 373.098 14.2846 373.098 20.418C373.098 26.6846 370.832 31.2846 366.298 34.218C361.898 37.1513 355.765 39.018 347.898 39.818C348.565 47.1513 348.898 57.5513 348.898 71.018C348.898 83.9513 348.498 95.018 347.698 104.218Z" stroke="#6C95FF" stroke-width="60" mask="url(#path-1-outside-1_731_55)"/>
<path d="M435.388 140.418C418.188 140.418 405.654 138.351 397.788 134.218C389.921 130.085 384.854 123.485 382.587 114.418C380.321 105.351 379.188 91.218 379.188 72.018C379.188 52.5513 380.254 38.0846 382.388 28.618C384.654 19.018 389.654 11.9513 397.388 7.41797C405.254 2.7513 417.721 0.417969 434.788 0.417969C445.054 0.417969 455.521 2.81797 466.188 7.61797C476.854 12.2846 485.854 20.018 493.188 30.818C500.521 41.618 504.188 55.418 504.188 72.218C504.188 88.3513 500.454 101.551 492.988 111.818C485.521 121.951 476.521 129.285 465.988 133.818C455.454 138.218 445.254 140.418 435.388 140.418ZM422.988 105.218C427.254 105.751 430.321 106.018 432.188 106.018C441.654 106.018 448.988 103.485 454.188 98.418C459.388 93.3513 461.987 86.3513 461.987 77.418C461.987 69.418 459.454 63.218 454.388 58.818C449.321 54.2846 442.187 52.018 432.987 52.018C429.521 52.018 426.188 52.2846 422.988 52.818V105.218Z" stroke="#6C95FF" stroke-width="60" mask="url(#path-1-outside-1_731_55)"/>
<path d="M584.395 140.218C569.195 140.218 556.195 137.551 545.395 132.218C534.595 126.885 526.329 119.285 520.595 109.418C514.995 99.418 512.195 87.618 512.195 74.018C512.195 57.7513 515.595 44.0846 522.395 33.018C529.329 21.9513 538.262 13.7513 549.195 8.41797C560.129 3.08464 571.595 0.417969 583.595 0.417969C594.262 0.417969 603.662 2.01797 611.795 5.21797C619.929 8.41797 626.195 12.618 630.595 17.818C634.995 23.018 637.195 28.4846 637.195 34.218C637.195 42.4846 635.062 48.418 630.795 52.018C626.529 55.4846 621.262 57.218 614.995 57.218C612.062 57.218 609.462 56.9513 607.195 56.418C605.062 55.8846 602.795 55.1513 600.395 54.218C597.729 53.2846 595.329 52.618 593.195 52.218C591.195 51.6846 588.662 51.418 585.595 51.418C576.795 51.418 569.862 54.0846 564.795 59.418C559.729 64.618 557.195 72.018 557.195 81.618C557.195 89.7513 559.662 96.018 564.595 100.418C569.529 104.818 575.662 107.018 582.995 107.018C587.129 107.018 590.729 106.485 593.795 105.418C596.862 104.351 599.195 103.151 600.795 101.818C602.395 100.485 603.195 99.418 603.195 98.618C593.462 98.618 586.062 97.4846 580.995 95.218C575.929 92.9513 573.395 89.018 573.395 83.418C573.395 77.818 575.329 73.4846 579.195 70.418C583.062 67.218 589.595 65.618 598.795 65.618C608.262 65.618 615.662 66.7513 620.995 69.018C626.329 71.1513 630.129 74.5513 632.395 79.218C634.662 83.7513 635.795 89.818 635.795 97.418C635.795 105.151 633.462 112.285 628.795 118.818C624.262 125.351 617.995 130.551 609.995 134.418C602.129 138.285 593.595 140.218 584.395 140.218Z" stroke="#6C95FF" stroke-width="60" mask="url(#path-1-outside-1_731_55)"/>
<path d="M743.05 108.418C749.45 110.418 752.65 114.618 752.65 121.018C752.65 127.018 749.583 131.751 743.45 135.218C737.317 138.685 726.717 140.418 711.65 140.418C692.85 140.418 676.717 135.885 663.25 126.818C649.917 117.751 643.25 99.7513 643.25 72.818C643.25 59.218 645.583 46.9513 650.25 36.018C654.917 25.0846 661.85 16.418 671.05 10.018C680.383 3.61797 691.783 0.417969 705.25 0.417969C723.25 0.417969 735.917 3.21797 743.25 8.81797C750.583 14.2846 754.25 21.018 754.25 29.018C754.25 32.7513 753.317 36.218 751.45 39.418C749.583 42.4846 746.783 44.8846 743.05 46.618C739.85 48.218 735.717 49.018 730.65 49.018L725.25 48.818C724.183 48.6846 722.65 48.618 720.65 48.618C713.717 48.618 708.25 49.8846 704.25 52.418C700.25 54.818 697.517 58.5513 696.05 63.618C701.65 63.3513 706.717 63.218 711.25 63.218C724.717 63.218 733.45 63.618 737.45 64.418C741.983 65.3513 745.45 67.1513 747.85 69.818C750.383 72.4846 751.65 75.618 751.65 79.218C751.65 82.818 750.45 85.9513 748.05 88.618C745.65 91.1513 742.05 92.8846 737.25 93.818C733.517 94.618 724.45 95.018 710.05 95.018C704.183 95.018 700.05 94.9513 697.65 94.818C701.783 103.618 709.517 108.018 720.85 108.018C721.517 108.018 723.05 107.885 725.45 107.618C728.65 107.351 731.383 107.218 733.65 107.218C737.517 107.218 740.65 107.618 743.05 108.418Z" stroke="#6C95FF" stroke-width="60" mask="url(#path-1-outside-1_731_55)"/>
<path d="M246.076 230.218C246.076 239.018 242.409 245.418 235.076 249.418C227.876 253.285 216.076 255.618 199.676 256.418C200.209 262.818 200.476 271.085 200.476 281.218C200.476 295.351 199.676 306.685 198.076 315.218C196.609 323.618 194.009 329.885 190.276 334.018C186.542 338.018 181.342 340.018 174.676 340.018C168.142 340.018 163.142 337.885 159.676 333.618C156.209 329.351 153.809 323.018 152.476 314.618C151.142 306.218 150.476 295.085 150.476 281.218C150.476 271.885 150.676 263.618 151.076 256.418C140.009 255.885 131.076 254.751 124.276 253.018C117.609 251.151 112.676 248.418 109.476 244.818C106.276 241.218 104.676 236.351 104.676 230.218C104.676 222.751 107.209 216.885 112.276 212.618C117.342 208.351 124.942 205.351 135.076 203.618C145.209 201.885 158.476 201.018 174.876 201.018C191.409 201.018 204.809 201.885 215.076 203.618C225.342 205.351 233.076 208.351 238.276 212.618C243.476 216.885 246.076 222.751 246.076 230.218Z" stroke="#6C95FF" stroke-width="60" mask="url(#path-1-outside-1_731_55)"/>
<path d="M273.18 340.818C264.247 340.818 257.047 336.485 251.58 327.818C246.247 319.018 243.114 307.151 242.18 292.218C242.047 290.085 241.98 286.951 241.98 282.818C241.98 266.685 244.647 252.418 249.98 240.018C255.314 227.485 262.847 217.818 272.58 211.018C282.447 204.085 293.914 200.618 306.98 200.618C320.047 200.618 331.447 204.085 341.18 211.018C351.047 217.818 358.58 227.418 363.78 239.818C369.114 252.218 371.78 266.551 371.78 282.818C371.78 286.951 371.714 290.085 371.58 292.218C370.647 307.418 367.514 319.285 362.18 327.818C356.847 336.351 349.647 340.618 340.58 340.618C333.247 340.618 328.114 338.618 325.18 334.618C322.38 330.618 320.98 325.751 320.98 320.018C320.98 317.351 321.18 315.018 321.58 313.018C314.647 313.285 308.514 313.418 303.18 313.418C299.847 313.418 296.18 313.285 292.18 313.018C292.58 315.018 292.78 317.351 292.78 320.018C292.78 325.885 291.314 330.818 288.38 334.818C285.58 338.818 280.514 340.818 273.18 340.818ZM290.78 277.418C297.98 277.151 303.247 277.018 306.58 277.018C310.18 277.018 315.447 277.151 322.38 277.418C322.647 275.951 322.78 273.751 322.78 270.818C322.78 264.551 321.447 259.485 318.78 255.618C316.114 251.618 311.98 249.618 306.38 249.618C300.914 249.618 296.847 251.551 294.18 255.418C291.514 259.285 290.18 264.285 290.18 270.418C290.18 272.685 290.38 275.018 290.78 277.418Z" stroke="#6C95FF" stroke-width="60" mask="url(#path-1-outside-1_731_55)"/>
<path d="M437.424 340.418C423.958 340.418 412.558 337.685 403.224 332.218C393.891 326.618 387.758 318.285 384.824 307.218C383.624 302.685 382.824 297.151 382.424 290.618C382.024 284.085 381.824 275.751 381.824 265.618C381.824 245.751 383.958 229.951 388.224 218.218C392.624 206.351 401.291 200.418 414.224 200.418C422.224 200.418 428.491 203.218 433.024 208.818C437.691 214.418 440.024 221.351 440.024 229.618C440.024 238.418 439.291 247.818 437.824 257.818C436.358 267.818 434.291 279.951 431.624 294.218C439.891 291.551 448.958 290.218 458.824 290.218C469.091 290.218 477.624 292.085 484.424 295.818C491.358 299.551 494.824 305.618 494.824 314.018C494.824 322.151 492.158 328.151 486.824 332.018C481.491 335.885 475.024 338.285 467.424 339.218C459.824 340.018 449.824 340.418 437.424 340.418Z" stroke="#6C95FF" stroke-width="60" mask="url(#path-1-outside-1_731_55)"/>
<path d="M575.565 271.818C587.432 277.285 597.498 283.885 605.765 291.618C614.165 299.351 618.365 307.751 618.365 316.818C618.365 324.818 616.165 330.751 611.765 334.618C607.365 338.485 601.965 340.418 595.565 340.418C586.365 340.418 577.698 336.218 569.565 327.818C561.565 319.285 553.832 308.151 546.365 294.418C546.365 303.885 545.832 311.818 544.765 318.218C543.832 324.618 541.698 329.951 538.365 334.218C535.032 338.351 530.032 340.418 523.365 340.418C516.432 340.418 511.298 337.818 507.965 332.618C504.765 327.418 502.765 321.151 501.965 313.818C501.298 306.485 500.965 296.885 500.965 285.018C500.965 276.618 501.032 266.685 501.165 255.218C501.432 243.618 501.698 236.418 501.965 233.618C502.232 223.618 504.298 215.618 508.165 209.618C512.032 203.485 517.498 200.418 524.565 200.418C532.698 200.418 538.365 203.885 541.565 210.818C544.898 217.751 546.565 228.351 546.565 242.618V248.618C553.365 236.351 561.232 225.351 570.165 215.618C579.098 205.885 588.032 201.018 596.965 201.018C603.232 201.018 608.365 203.418 612.365 208.218C616.498 212.885 618.565 218.685 618.565 225.618C618.565 234.951 614.565 243.885 606.565 252.418C598.698 260.818 588.365 267.285 575.565 271.818Z" stroke="#6C95FF" stroke-width="60" mask="url(#path-1-outside-1_731_55)"/>
<path d="M637.104 209.818C640.971 203.551 647.437 200.418 656.504 200.418C665.171 200.418 671.437 203.418 675.304 209.418C679.304 215.418 681.304 222.685 681.304 231.218C681.304 238.285 680.637 246.151 679.304 254.818C677.971 263.351 676.104 271.018 673.704 277.818C672.504 281.151 670.437 284.085 667.504 286.618C664.704 289.018 661.037 290.218 656.504 290.218C651.971 290.218 648.237 289.018 645.304 286.618C642.371 284.085 640.304 281.151 639.104 277.818C636.704 271.151 634.837 263.685 633.504 255.418C632.171 247.018 631.504 239.418 631.504 232.618C631.504 223.551 633.371 215.951 637.104 209.818ZM670.904 333.218C666.771 337.351 661.904 339.418 656.304 339.418C650.704 339.418 645.837 337.351 641.704 333.218C637.571 329.085 635.504 324.218 635.504 318.618C635.504 313.018 637.571 308.151 641.704 304.018C645.837 299.885 650.704 297.818 656.304 297.818C661.904 297.818 666.771 299.885 670.904 304.018C675.037 308.151 677.104 313.018 677.104 318.618C677.104 324.218 675.037 329.085 670.904 333.218Z" stroke="#6C95FF" stroke-width="60" mask="url(#path-1-outside-1_731_55)"/>
</g>
<defs>
<filter id="filter0_d_731_55" x="0.65625" y="-29.582" width="787.594" height="408.4" filterUnits="userSpaceOnUse" color-interpolation-filters="sRGB">
<feFlood flood-opacity="0" result="BackgroundImageFix"/>
<feColorMatrix in="SourceAlpha" type="matrix" values="0 0 0 0 0 0 0 0 0 0 0 0 0 0 0 0 0 0 127 0" result="hardAlpha"/>
<feOffset dy="4"/>
<feGaussianBlur stdDeviation="2"/>
<feComposite in2="hardAlpha" operator="out"/>
<feColorMatrix type="matrix" values="0 0 0 0 0 0 0 0 0 0 0 0 0 0 0 0 0 0 0.25 0"/>
<feBlend mode="normal" in2="BackgroundImageFix" result="effect1_dropShadow_731_55"/>
<feBlend mode="normal" in="SourceGraphic" in2="effect1_dropShadow_731_55" result="shape"/>
</filter>
</defs>
</svg>
