<svg width="89" height="49" viewBox="0 0 89 49" fill="none" xmlns="http://www.w3.org/2000/svg">
<path d="M34.96 15.6H33.08V18.44H31.2V21.32H29.2V24.24H27.08V27.24H24.84V30.28H22.52V33.4H20.12V35.6H13.76V33.4H11.32V27.32H13.92V24.28H16.44V21.24H18.84V18.36H21.2V15.56H23.32V12.88H25.36V8.36H10.8V6.52H8.95996V1.8H10.8V0H33V1.96H34.96V15.6Z" fill="black"/>
<path d="M76.7602 10.44V8.24H73.3602V10.44H70.9202V25.04H73.3602V27.2H76.7602V25.04H79.2002V10.44H76.7602ZM81.8802 33.24V35.48H68.2802V33.24H65.9602V30.68H63.7602V27.76H61.7202V7.88H63.7602V5H65.9602V2.44H68.2802V0H81.8802V2.44H84.1602V5H86.4002V7.88H88.4402V27.76H86.4002V30.68H84.1602V33.24H81.8802Z" fill="white"/>
<path d="M42.8 22.72V26.36H44.48V28.2H49.12V26.36H50.8V22.72H49.12V20.88H44.48V22.72H42.8ZM59.88 18.92V42.92H58.04V44.92H56V46.76H53.88V48.48H37.56V46.64H35.68V42.36H37.56V40.52H48.72V38.76H50.36V35.84H39.96V34H37.84V32H35.8V29.92H33.96V18.92H35.8V16.84H37.84V14.88H40V13H54.12V14.88H56.2V16.84H58.16V18.92H59.88Z" fill="black"/>
<path d="M0 5.25V1.75H1.75V5.25H0ZM1.75 12.25V10.5H5.25V12.25H1.75ZM1.75 5.25H5.25V1.75H7V10.5H5.25V7H1.75V5.25ZM1.75 1.75V0H5.25V1.75H1.75Z" fill="white"/>
<path d="M27 41.25V37.75H28.75V41.25H27ZM28.75 48.25V46.5H32.25V48.25H28.75ZM28.75 41.25H32.25V37.75H34V46.5H32.25V43H28.75V41.25ZM28.75 37.75V36H32.25V37.75H28.75Z" fill="white"/>
<path d="M53 10.5V1.75H54.75V10.5H53ZM60 10.5H58.25V1.75H60V10.5ZM54.75 10.5H58.25V12.25H54.75V10.5ZM54.75 1.75V0H58.25V1.75H54.75Z" fill="white"/>
</svg>
